<svg xmlns="http://www.w3.org/2000/svg" width="50" height="71.429" viewBox="0 0 50 71.429">
  <defs>
    <style>.a{fill:#fff;}</style>
  </defs>
  <path class="a" d="M21.786,70.857a3.582,3.582,0,0,0,3.571,3.571H39.643a3.582,3.582,
    0,0,0,3.571-3.571V67.286H21.786ZM32.5,3A24.989,24.989,0,0,0,18.214,48.5v8.071a3.582,
    3.582,0,0,0,3.571,3.571H43.214a3.582,3.582,0,0,0,3.571-3.571V48.5A24.989,24.989,0,0,0,
    32.5,3ZM42.679,42.643l-3.036,2.143V53H25.357V44.786l-3.036-2.143a17.857,17.857,0,1,1,20.357,0Z"
    transform="translate(-7.5 -3)"/>
</svg>
