<svg xmlns="http://www.w3.org/2000/svg" width="28" height="26.445" viewBox="0 0 28 26.445"><path d="M26.2,12.37a3.143,3.143,0,0,0-2.237.938,15.168,15.168,0,0,0-8.091-2.5L17.5,3.447l5.205,1.169a2.317,2.317,0,0,0,2.313,2.313,2.343,2.343,0,1,0-2.083-3.387L17.191,2.267a.55.55,0,0,0-.649.419l-1.794,8.12A15.357,15.357,0,0,0,6.7,13.332a3.112,3.112,0,1,0-3.618,4.945,6.606,6.606,0,0,0-.153,1.458c0,4.945,5.571,8.953,12.411,8.953,6.869,0,12.44-4.007,12.44-8.953a5.63,5.63,0,0,0-.183-1.481A3.107,3.107,0,0,0,26.2,12.37ZM7.848,18.59A2.328,2.328,0,1,1,10.191,20.9,2.334,2.334,0,0,1,7.848,18.59ZM20.5,24.108c-2.148,2.148-8.209,2.148-10.357,0a.55.55,0,0,1,0-.809.567.567,0,0,1,.779,0c1.641,1.682,7.082,1.711,8.793,0a.567.567,0,0,1,.779,0A.545.545,0,0,1,20.5,24.108Zm-.047-3.2A2.328,2.328,0,1,1,22.791,18.6,2.317,2.317,0,0,1,20.448,20.909Z" transform="translate(-1.319 -2.243)" fill="#fff"/></svg>
