<svg xmlns="http://www.w3.org/2000/svg" width="25" height="25" viewBox="0 0 25 25"><path d="M14.977,2.25A12.226,12.226,0,0,0,2.7,14.428a12.052,12.052,0,0,0,1.761,6.288L2.25,27.25l6.795-2.159A12.294,12.294,0,0,0,27.25,14.428,12.226,12.226,0,0,0,14.977,2.25Zm6.1,16.8a3.17,3.17,0,0,1-2.171,1.4c-.576.031-.592.446-3.73-.917A12.805,12.805,0,0,1,10,14.643a6.019,6.019,0,0,1-1.158-3.262,3.478,3.478,0,0,1,1.194-2.552,1.2,1.2,0,0,1,.85-.358c.247,0,.407-.007.59,0s.457-.038.695.594.806,2.185.879,2.343a.569.569,0,0,1,.006.545,2.131,2.131,0,0,1-.333.507c-.164.176-.345.393-.491.527-.163.149-.333.311-.162.629a9.392,9.392,0,0,0,1.662,2.217A8.563,8.563,0,0,0,16.2,17.469c.308.168.491.149.682-.052s.817-.879,1.038-1.181.428-.244.711-.13,1.794.924,2.1,1.091.513.253.586.385A2.577,2.577,0,0,1,21.079,19.053Z" transform="translate(-2.25 -2.25)" fill="#fff"/></svg>
