<svg xmlns="http://www.w3.org/2000/svg" width="23" height="23" viewBox="0 0 23 23"><path d="M20.125,8.625V3.47A1.438,1.438,0,0,0,19.7,2.454L17.671.421A1.438,1.438,0,0,0,16.654,0H4.313A1.438,1.438,0,0,0,2.875,1.438V8.625A2.875,2.875,0,0,0,0,11.5v5.031a.719.719,0,0,0,.719.719H2.875v4.313A1.438,1.438,0,0,0,4.313,23H18.688a1.438,1.438,0,0,0,1.438-1.437V17.25h2.156A.719.719,0,0,0,23,16.531V11.5A2.875,2.875,0,0,0,20.125,8.625Zm-2.875,11.5H5.75V15.813h11.5Zm0-10.062H5.75V2.875h8.625V5.031a.719.719,0,0,0,.719.719H17.25ZM19.406,13.3a1.078,1.078,0,1,1,1.078-1.078A1.078,1.078,0,0,1,19.406,13.3Z" fill="#fff"/></svg>