<svg xmlns="http://www.w3.org/2000/svg" width="23" height="18.68" viewBox="0 0 23 18.68"><path d="M20.636,8.036c.015.2.015.409.015.613A13.32,13.32,0,0,1,7.239,22.061,13.321,13.321,0,0,1,0,19.945,9.752,9.752,0,0,0,1.138,20,9.44,9.44,0,0,0,6.99,17.989,4.722,4.722,0,0,1,2.583,14.72a5.944,5.944,0,0,0,.89.073,4.986,4.986,0,0,0,1.24-.161,4.714,4.714,0,0,1-3.78-4.626V9.948a4.747,4.747,0,0,0,2.131.6,4.721,4.721,0,0,1-1.459-6.3,13.4,13.4,0,0,0,9.72,4.933,5.321,5.321,0,0,1-.117-1.08,4.718,4.718,0,0,1,8.158-3.225,9.281,9.281,0,0,0,2.992-1.138,4.7,4.7,0,0,1-2.072,2.6A9.45,9.45,0,0,0,23,5.6a10.133,10.133,0,0,1-2.364,2.437Z" transform="translate(0 -3.381)" fill="#fff"/></svg>